PathFileType	4	(X/Y/Z)
DataRate	CameraRate	NumFrames	NumMarkers	Units	OrigDataRate	OrigDataStartFrame	OrigNumFrames	
  120.0	  120.0	    4	     56	     mm	  120.0	      233	    465
Frame#	Time	LASI			RASI			LPSI			RPSI			RTH1			RTH2			RTH3			RLFC			RMFC			LTH1			LTH2			LTH3			LLFC			LMFC			RTB1			RTB2			RTB3			RLMAL			RMMAL			LTB1			LTB2			LTB3			LMMAL			LLMAL			RCAL			RTOE			RMT5			LCAL			LTOE			LMT5			LACR			RACR			CLAV			C7			LASH			LPSH			RASH			RPSH			RUA1			RUA2			RUA3			RLEL			RMEL			LUA1			LUA2			LUA3			LLEL			LMEL			RFAsuperior			RFAradius			RFAulna			LFAsuperior			LFAradius			LFAulna			RHJC			LHJC			
		X1	Y1	Z1	X2	Y2	Z2	X3	Y3	Z3	X4	Y4	Z4	X5	Y5	Z5	X6	Y6	Z6	X7	Y7	Z7	X8	Y8	Z8	X9	Y9	Z9	X10	Y10	Z10	X11	Y11	Z11	X12	Y12	Z12	X13	Y13	Z13	X14	Y14	Z14	X15	Y15	Z15	X16	Y16	Z16	X17	Y17	Z17	X18	Y18	Z18	X19	Y19	Z19	X20	Y20	Z20	X21	Y21	Z21	X22	Y22	Z22	X23	Y23	Z23	X24	Y24	Z24	X25	Y25	Z25	X26	Y26	Z26	X27	Y27	Z27	X28	Y28	Z28	X29	Y29	Z29	X30	Y30	Z30	X31	Y31	Z31	X32	Y32	Z32	X33	Y33	Z33	X34	Y34	Z34	X35	Y35	Z35	X36	Y36	Z36	X37	Y37	Z37	X38	Y38	Z38	X39	Y39	Z39	X40	Y40	Z40	X41	Y41	Z41	X42	Y42	Z42	X43	Y43	Z43	X44	Y44	Z44	X45	Y45	Z45	X46	Y46	Z46	X47	Y47	Z47	X48	Y48	Z48	X49	Y49	Z49	X50	Y50	Z50	X51	Y51	Z51	X52	Y52	Z52	X53	Y53	Z53	X54	Y54	Z54	X55	Y55	Z55	X56	Y56	Z56	

237	1.97500	624.24515	1111.14699	-640.44707	659.83545	1106.42982	-388.85476	468.12394	1142.70959	-533.90571	486.45873	1143.43865	-435.59093	632.60532	877.33379	-328.27008	646.53840	753.04761	-358.93880	560.39550	637.70095	-329.61709	551.30601	556.47852	-330.29675	543.76742	560.79449	-442.21119	546.65150	870.02824	-682.59030	592.71887	763.53964	-659.23225	530.07570	658.92794	-652.02506	518.04708	574.61517	-644.48709	529.72477	569.61654	-530.35481	564.73646	430.56468	-378.21848	506.31172	353.18125	-306.75350	536.16756	234.19690	-363.23544	486.97638	139.76377	-310.82274	499.73587	140.03007	-392.68207	536.57243	432.86245	-589.72501	479.09391	327.90124	-647.12356	516.32630	217.90482	-604.12057	480.26387	141.85146	-565.34899	465.32933	140.41911	-641.53055	417.94174	105.91371	-347.66366	630.88366	57.87977	-392.92449	624.59193	71.08359	-300.50737	404.42557	104.84188	-598.20035	626.84009	53.55656	-576.14005	603.33033	70.41933	-667.45809	519.21917	1558.42588	-665.28954	558.92822	1559.22809	-342.65281	631.22600	1510.45071	-493.56504	510.10339	1589.26275	-498.75770	577.92693	1506.01628	-636.51605	467.00543	1526.17010	-642.50756	618.56412	1516.37186	-368.63729	504.76722	1522.64799	-343.71627	578.55370	1481.71102	-267.45883	530.27008	1430.58170	-256.31979	582.00252	1385.51211	-228.64549	534.32484	1291.07723	-144.91305	529.77971	1242.46616	-202.99506	492.71230	1466.26718	-746.59327	457.45020	1388.32622	-742.48434	513.06852	1396.84648	-791.01447	467.04773	1296.11265	-871.87299	468.85436	1253.96223	-812.31222	620.64894	1313.93906	-147.75576	780.71134	1311.32372	-216.20264	787.32531	1293.69441	-155.42644	553.60880	1323.56852	-875.55606	716.91726	1329.01364	-820.15391	714.27606	1319.00046	-879.36112	605.85724	998.51993	-402.21734	569.82306	1006.12586	-615.57764	
238	1.98333	624.23581	1111.14849	-640.40517	659.77781	1106.46438	-388.91874	467.83837	1142.76945	-533.80621	486.50204	1143.41867	-435.50626	632.64981	877.33350	-328.29228	646.58784	753.05013	-358.97015	560.47416	637.75467	-329.54857	551.38710	556.47429	-330.29741	543.82793	560.77261	-442.23192	546.58447	870.03954	-682.56630	592.63058	763.55585	-659.17514	530.01000	658.93753	-651.99438	517.97248	574.62667	-644.45218	529.71335	569.61529	-530.35646	564.76671	430.55757	-378.18896	506.36243	353.21002	-306.75896	536.14873	234.19703	-363.23201	486.97905	139.76662	-310.82414	499.65462	140.05118	-392.66213	536.53400	432.86703	-589.72318	478.99989	327.91865	-647.10663	516.28307	217.90632	-604.12826	480.26651	141.85034	-565.36148	465.24402	140.43834	-641.50625	417.94395	105.91182	-347.65708	630.83648	57.89573	-392.91378	624.57362	71.09859	-300.48918	404.31525	104.81934	-598.11377	626.77458	53.57556	-576.13381	603.28316	70.43242	-667.45597	519.13313	1558.43498	-665.24827	558.90949	1559.22260	-342.65688	631.14862	1510.44571	-493.58444	510.04913	1589.27505	-498.74549	577.81532	1506.04722	-636.39022	466.92217	1526.17472	-642.45735	618.54334	1516.37097	-368.64038	504.75075	1522.62681	-343.70739	578.54724	1481.70386	-267.46108	530.26972	1430.56190	-256.32210	582.01187	1385.50694	-228.64379	534.35347	1291.06744	-144.91028	529.85629	1242.44784	-202.98792	492.61529	1466.25871	-746.56863	457.25709	1388.36474	-742.39684	512.95386	1396.88371	-790.94379	466.93864	1296.12089	-871.82764	468.85442	1253.95941	-812.31206	620.65171	1313.96797	-147.74967	780.69965	1311.37396	-216.14373	787.36824	1293.75245	-155.43857	553.49822	1323.59667	-875.51060	716.90004	1329.02813	-820.17058	714.17103	1319.02591	-879.34145	605.86026	998.54068	-402.20916	569.71708	1006.14798	-615.54595	
239	1.99167	624.25152	1111.13417	-640.44817	659.73697	1106.49711	-388.96218	467.62174	1142.87118	-533.67494	486.39211	1143.39633	-435.69441	632.69762	877.33688	-328.30281	646.64549	753.05243	-358.98496	560.55197	637.76176	-329.52880	551.46693	556.47198	-330.28622	543.88562	560.73496	-442.27057	546.49839	870.02767	-682.49929	592.55653	763.56577	-659.12626	529.95551	658.94745	-651.95339	517.90582	574.63200	-644.41483	529.74257	569.61563	-530.37016	564.81301	430.54363	-378.15069	506.41237	353.23177	-306.74003	536.13773	234.18645	-363.21553	486.98754	139.77317	-310.81563	499.57563	140.08143	-392.64102	536.50653	432.87450	-589.71583	478.90998	327.93486	-647.07991	516.25351	217.89870	-604.11908	480.24528	141.86004	-565.41640	465.18100	140.45491	-641.48528	417.94962	105.91042	-347.64753	630.78034	57.89016	-392.90380	624.56201	71.11816	-300.45596	404.20588	104.79484	-598.01167	626.73089	53.58683	-576.11398	603.24738	70.43798	-667.43688	519.05349	1558.44496	-665.20653	558.89482	1559.21357	-342.64351	631.07412	1510.45419	-493.56959	509.99630	1589.28208	-498.71705	577.71159	1506.07099	-636.28241	466.84805	1526.18200	-642.41749	618.52343	1516.36671	-368.61183	504.72997	1522.60040	-343.69211	578.53829	1481.69866	-267.44313	530.27574	1430.53366	-256.29855	582.02272	1385.50673	-228.62200	534.38654	1291.05242	-144.89515	529.93681	1242.43480	-202.97614	492.52420	1466.24756	-746.54263	457.10701	1388.39284	-742.31793	512.85931	1396.90809	-790.88888	466.84721	1296.13126	-871.78185	468.86061	1253.95630	-812.31344	620.65911	1313.99006	-147.73062	780.65757	1311.43343	-216.04750	787.40876	1293.80392	-155.43522	553.39393	1323.62535	-875.46803	716.87684	1329.03857	-820.17202	714.08154	1319.05093	-879.33632	605.79651	998.57627	-402.22957	569.66270	1006.15138	-615.56770	
240	2.00000	624.28537	1111.11719	-640.55794	659.71395	1106.52644	-389.00117	467.59651	1142.93819	-533.60198	486.24250	1143.38285	-435.97267	632.74561	877.34644	-328.30463	646.70981	753.05573	-358.99424	560.62222	637.71167	-329.58233	551.54613	556.47284	-330.26921	543.93806	560.70839	-442.31306	546.40539	869.99144	-682.40834	592.50910	763.56886	-659.09026	529.91905	658.95731	-651.91917	517.85415	574.62703	-644.38054	529.81954	569.61261	-530.39554	564.87509	430.52745	-378.12122	506.45262	353.22829	-306.72475	536.13822	234.17036	-363.19467	486.99943	139.78231	-310.80343	499.51459	140.11102	-392.62379	536.49007	432.88286	-589.70714	478.84321	327.94200	-647.04948	516.24009	217.88707	-604.10307	480.22681	141.86759	-565.45915	465.14243	140.46768	-641.47219	417.95770	105.91242	-347.63699	630.72939	57.87312	-392.90011	624.55470	71.13645	-300.42099	404.12018	104.77137	-597.92024	626.71066	53.59004	-576.09438	603.22678	70.43813	-667.41595	518.98881	1558.45576	-665.17157	558.87897	1559.20594	-342.61857	631.02269	1510.47803	-493.52079	509.94982	1589.28839	-498.68031	577.62633	1506.08829	-636.20095	466.78458	1526.19552	-642.38845	618.50508	1516.36208	-368.56859	504.70791	1522.58124	-343.67014	578.52992	1481.70354	-267.40746	530.28473	1430.50861	-256.26177	582.03603	1385.51567	-228.58695	534.42353	1291.03929	-144.87193	530.01203	1242.42910	-202.96155	492.44317	1466.24982	-746.49965	457.01563	1388.40428	-742.26193	512.78514	1396.92002	-790.85452	466.77805	1296.14447	-871.74001	468.87540	1253.94982	-812.31467	620.67257	1314.00908	-147.70561	780.61122	1311.50368	-215.95177	787.45010	1293.84918	-155.42066	553.30804	1323.65095	-875.43415	716.84747	1329.05027	-820.16802	714.01344	1319.07830	-879.33601	605.74951	998.60814	-402.28736	569.66428	1006.14436	-615.63483	
